<svg width="100" height="34" viewBox="0 0 100 34" fill="none" xmlns="http://www.w3.org/2000/svg">
<path fill-rule="evenodd" clip-rule="evenodd" d="M37.5 0.512024L0 16.75L37.5 32.988V18.2477C37.2952 18.4471 37.0061 18.5588 36.6963 18.5257L27.4741 17.5428C26.2821 17.4157 26.2821 15.6811 27.4741 15.554L36.6963 14.5711C37.0061 14.538 37.2952 14.6497 37.5 14.849V0.512024Z" fill="#100F0A"/>
<path d="M65.1506 14.2585H62.0483C61.929 13.5956 61.7069 13.0123 61.3821 12.5085C61.0573 12.0047 60.6596 11.5772 60.1889 11.2259C59.7183 10.8745 59.1913 10.6094 58.608 10.4304C58.0313 10.2514 57.4181 10.1619 56.7685 10.1619C55.5952 10.1619 54.5445 10.4569 53.6165 11.0469C52.6951 11.6368 51.9659 12.5019 51.429 13.642C50.8987 14.7822 50.6335 16.1742 50.6335 17.8182C50.6335 19.4754 50.8987 20.8741 51.429 22.0142C51.9659 23.1544 52.6984 24.0161 53.6264 24.5994C54.5545 25.1828 55.5985 25.4744 56.7585 25.4744C57.4015 25.4744 58.0114 25.3883 58.5881 25.2159C59.1714 25.0369 59.6984 24.7751 60.169 24.4304C60.6397 24.0857 61.0374 23.6648 61.3622 23.1676C61.6937 22.6638 61.9223 22.0871 62.0483 21.4375L65.1506 21.4474C64.9848 22.4484 64.6634 23.3698 64.1861 24.2116C63.7154 25.0469 63.1089 25.7694 62.3665 26.3793C61.6307 26.9825 60.7888 27.4498 59.8409 27.7812C58.893 28.1127 57.8589 28.2784 56.7386 28.2784C54.9754 28.2784 53.4044 27.8608 52.0256 27.0256C50.6468 26.1837 49.5597 24.9806 48.7642 23.4162C47.9754 21.8518 47.581 19.9858 47.581 17.8182C47.581 15.6439 47.9787 13.7779 48.7741 12.2202C49.5696 10.6558 50.6567 9.45597 52.0355 8.62074C53.4143 7.77888 54.982 7.35795 56.7386 7.35795C57.8191 7.35795 58.8267 7.51373 59.7614 7.82528C60.7027 8.13021 61.5478 8.58097 62.2969 9.17756C63.0459 9.76752 63.6657 10.4901 64.1562 11.3452C64.6468 12.1937 64.9782 13.1648 65.1506 14.2585ZM78.2631 21.6662V12.7273H81.2461V28H78.3228V25.3551H78.1637C77.8124 26.1705 77.2489 26.8499 76.4734 27.3935C75.7044 27.9304 74.7466 28.1989 73.5998 28.1989C72.6187 28.1989 71.7504 27.9834 70.9947 27.5526C70.2456 27.1151 69.6557 26.4688 69.2248 25.6136C68.8005 24.7585 68.5884 23.7012 68.5884 22.4418V12.7273H71.5614V22.0838C71.5614 23.1245 71.8498 23.9531 72.4265 24.5696C73.0032 25.1861 73.7522 25.4943 74.6737 25.4943C75.2305 25.4943 75.784 25.3551 76.3342 25.0767C76.891 24.7983 77.3517 24.3774 77.7163 23.8139C78.0875 23.2505 78.2698 22.5346 78.2631 21.6662ZM91.8232 28.3082C90.3184 28.3082 89.0225 27.9867 87.9354 27.3438C86.8549 26.6941 86.0196 25.7827 85.4297 24.6094C84.8464 23.4295 84.5547 22.0473 84.5547 20.4631C84.5547 18.8987 84.8464 17.5199 85.4297 16.3267C86.0196 15.1335 86.8416 14.2022 87.8956 13.5327C88.9562 12.8632 90.1958 12.5284 91.6143 12.5284C92.4761 12.5284 93.3113 12.6709 94.12 12.956C94.9287 13.241 95.6546 13.6884 96.2976 14.2983C96.9406 14.9081 97.4477 15.7003 97.8189 16.6747C98.1901 17.6425 98.3757 18.8191 98.3757 20.2045V21.2585H86.2351V19.0312H95.4624C95.4624 18.2491 95.3033 17.5563 94.9851 16.9531C94.6669 16.3433 94.2195 15.8627 93.6428 15.5114C93.0727 15.16 92.4032 14.9844 91.6342 14.9844C90.799 14.9844 90.0698 15.1899 89.4467 15.6009C88.8303 16.0052 88.353 16.5355 88.0149 17.1918C87.6835 17.8414 87.5178 18.5473 87.5178 19.3097V21.0497C87.5178 22.0705 87.6967 22.9389 88.0547 23.6548C88.4193 24.3707 88.9264 24.9176 89.576 25.2955C90.2256 25.6667 90.9846 25.8523 91.853 25.8523C92.4164 25.8523 92.9302 25.7727 93.3942 25.6136C93.8582 25.4479 94.2592 25.2027 94.5973 24.8778C94.9354 24.553 95.1939 24.152 95.3729 23.6747L98.1868 24.1818C97.9614 25.0104 97.5571 25.7363 96.9737 26.3594C96.397 26.9759 95.6712 27.4564 94.7962 27.8011C93.9278 28.1392 92.9368 28.3082 91.8232 28.3082Z" fill="#100F0A"/>
</svg>
